<svg xmlns="http://www.w3.org/2000/svg" width="24" height="22" viewBox="0 0 24 22">
    <g fill="none" fill-rule="evenodd">
        <path fill="#8c8c8c" d="M19.169 10.818l-.814 4.882a1.167 1.167 0 0 1-1.36.956L3.733 14.245c-.437-.08-.791-.4-.913-.828l-2.13-7.45a1.167 1.167 0 0 1 1.123-1.488h16.013l.716-3.066c.145-.623.7-1.064 1.34-1.064h2.41a1.377 1.377 0 0 1 0 2.753h-1.318l-1.804 7.716z"/>
        <path fill="#F0F0F0" d="M5.583 21.5a1.75 1.75 0 1 1 0-3.5 1.75 1.75 0 0 1 0 3.5zm10.5 0a1.75 1.75 0 1 1 0-3.5 1.75 1.75 0 0 1 0 3.5z"/>
    </g>
</svg>
