<svg xmlns="http://www.w3.org/2000/svg" width="22" height="28" viewBox="0 0 22 28">
    <g fill="none" fill-rule="evenodd">
        <path d="M-5-2h32v32H-5z"/>
        <path fill="#FFCC59" d="M2.81.667h10.505a2 2 0 0 1 1.292.473l6.351 5.372a2 2 0 0 1 .709 1.527v16.739c0 2.387-.028 2.555-2.477 2.555H2.81c-2.45 0-2.477-.168-2.477-2.555V3.222C.333.835.361.667 2.81.667z"/>
        <path fill="#000" d="M8.111 20.667c-1.35 0-2.444-.912-2.444-2.037s1.094-2.037 2.444-2.037c.286 0 .56.04.815.116v-5.654c0-.417.26-.787.643-.911l4.685-1.433c.59-.192 1.19.267 1.19.912v1.432c0 .478-.447.783-.814.87-.53.127-1.887.399-4.074.816v5.93c0 .074-.006.141-.018.204-.145 1.01-1.176 1.792-2.427 1.792z"/>
    </g>
</svg>
